<svg viewBox="0 0 1024 1024" height="1024" width="1024" xmlns:xlink="http://www.w3.org/1999/xlink" xmlns="http://www.w3.org/2000/svg">
  <defs>
    <clipPath id="clip-植物">
      <rect height="1024" width="1024"></rect>
    </clipPath>
  </defs>
  <g clip-path="url(#clip-植物)" id="植物">
    <rect fill="#fff" height="1024" width="1024"></rect>
    <g transform="translate(-7531.021 1062.199)" id="组_10">
      <g id="组_6">
        <path fill="#b2d998" d="M8040.183-363.134l-115.3-82.042,114.172,53.728L7934.48-461.486l104.578,56.606L7934.48-480.674l100.74,55.647-89.1-67.229,87.6,30.771-100.777-71.081,107.237,48.838-1.55-8.527-118.09-57.624,121.966,44.445-2.326-5.685L7914.6-565.9l124.033,46.254,1.55-8.527L7900.9-583.989l139.279,40.311v-6.2l-175.455-64.342,163.827,46-146.772-63.05,144.447,43.928-170-70.053,176.023,53.412-188.117-73.9,175.352,53.748-6.718-7.132S7856.9-700.4,7825.322-701.407c44.678,1.344,177.7,46.693,177.7,46.693s-139.072-61.474-174.344-68.192,182.742,53.076,182.742,53.076l-177.7-62.146,169.305,43.67L7837.751-735l175.016,35.272-1.344-4.7-191.812-38.3,173.672,19.819s-133.7-31.241-186.773-35.944c.336-2.016,175.352,13.773,175.352,13.773s-178.375-38.631-185.43-40.311,190.132,28.217,190.132,28.217l-4.7-7.39s-179.047-42.326-185.43-42.662,180.055,30.233,180.055,30.233l-7.054-8.4-167.29-30.233,146.8,16.46s-67.673-20.233-180.336-27.468c42.895-1.034,135.661,4.134,135.661,4.134L7748.45-839.032l133.852,3.618-140.829-9.3,132.3-8.01L7738.114-850.4l90.568-14.987-90.568,10.077,114.734-27.629-5.963-2.982L7718.677-857.5,7826.61-894.47l-17.182-5.676-5.081-1.678s-.994,10.535-42.338,24.846-65.594,14.51-65.594,14.51,38.362-18.287,59.035-23.455,37.965-12.125,45.717-15.9-18.684-4.771-18.684-4.771-11.528,12.324-38.562,20.672-65.7,12.706-65.7,12.706,43.883-17.737,58.408-22.476,43.424-10.9,43.424-10.9l-19.925-4.387s-13.71,11.619-37.868,17.276-52.6,7.783-52.6,7.783,27.675-11.606,47.093-16.957,38.072-8.715,38.072-8.715l-2.292-.374-11.775-1.92s-30.029,11.208-41.558,12.859-49.1,4.174-49.1,4.174,35.978-12.351,48.1-14.126,36.574-4.161,36.574-4.161-49.632,1.173-75.473-1.153-42.12-7.494-42.12-7.494,41.956-4.135,61.03-2.842S7729.6-916.3,7729.6-916.3s-64.083-20.672-75.97-30.233,39.277,6.46,48.58,10.853,54.523,23.707,54.523,23.707-31.009-11.82-50.389-24.74-31.008-19.639-31.008-19.639,33.592,3.876,50.905,11.886,42.9,30.094,46,33.334,13.7,3.359,13.7,3.359-31.535-22.223-44.962-37.468-20.155-34.109-20.155-34.109S7757.1-957.382,7765-947.562s23.515,36.176,25.324,39.794,19.107,5.944,19.107,5.944l-64.1-88.852,90.64,98.193,12.324,4.969-75.136-107.138,98.988,118.865-77.124-135.761L7894.4-863.86s-77.124-152.259-75.334-150.072,97,165.179,97,165.179l4.239,5.326-55.557-156.851,72.353,166.928s-26.1-141.088-43.928-164.086c41.086,50.647,58.4,181.916,60.208,187.342s2.325,2.871,2.325,2.871-10.853-145.251-23.256-173.675c17.054,8.527,34.626,180.624,33.592,185.017s4.651,7.494,4.651,7.494.775-144.964-7.752-171.838c20.156,34.626,20.414,190.7,20.414,190.7l3.206,4.964s9.047-127.317,6.718-154.527c9.765,5.711,6.405,151.166,6.405,151.166s28.217-101.93,28.217-126.548c4.7,2.592-9.742,130.583-21.835,149.393,1.008,2.685,41.655-93.389,42.663-122.278,3.023,38.3-37.31,141.088-37.31,141.088l51.755-123.956-46.358,148.816v6.381s55.427-97.754,59.794-122.612c2.016,9.07-54.419,141.424-54.419,141.424l1.68,2.016,64.161-120.261-58.115,139.746,2.329,5.373,67.207-122.612L8035.3-624.145l1.68,5.037,71.888-118.917-67.857,138.737,1.5,4.367,75.089-112.87-73.567,133.026v6.539l78.942-114.035-76.927,138.583v8.216l84.317-116.23L8046.046-512.62v7.185l98.762-128.118-98.762,154.525v4.7L8156.9-574.766l-100.441,116.9,123.284-38.3-135.713,69.536,106.824-18.552-108.346,53.728Z" id="路径_20"></path>
        <path fill="#7aa355" d="M7733-915.3s79.543,13.987,105.125,25.616,85.025,43.927,118.606,89.407,47.971,75.016,59.427,119.9,24.49,84.782,22.614,187.033-2.492,179.252-2.492,179.252l8.169,5.254s2.927-106.7,2.927-137.608S8049.5-558.15,8042-602.982s-27.558-121.267-50.725-155.868-47.339-71.707-91.395-101.113a312.409,312.409,0,0,0-100.26-44.445C7780.5-909.318,7733-915.3,7733-915.3Z" id="路径_19"></path>
      </g>
      <path fill="#10726f" transform="translate(7595.734 -618.367)" d="M408.987,286.911a266.983,266.983,0,0,0-14.012-73.578c-10.206-6.6-41.761-16.519-62.413-20.555-22.481-4.393-75.712-50.388-75.712-50.388A283.394,283.394,0,0,0,303.1,164.1c13.621,4.879,28.755,5.773,42.637,10.077a98.747,98.747,0,0,1,46.3,30.762c-9.975-27.28-22.309-49.688-31.292-65.535a272.414,272.414,0,0,0-41.356-7.605c-13.817-1.5-26.91.249-40.467,2-12.051,1.56-24.468,3.118-38.088,2.389-28.941-1.551-65.376-19.639-65.376-19.639s42.637,3.1,63.05,3.618c7.851.2,18.989-.176,30.65-.551,18.66-.6,38.66-1.2,48.679.551,15.685,2.738,37.847,12.434,39.444,13.138q-1.471-2.592-2.743-4.87c-5.9-10.61-15.3-24.233-26.9-38.225-7.466-.071-38.641-.037-53.626,5.19-17.1,5.963-50.886,14.909-65.4,15.7s-78.116-1.192-78.116-1.192,50.885-4.97,65.992-9.342,41.742-15.7,57.445-18.685c13.363-2.537,56.232,1.259,68.714,2.447a314.762,314.762,0,0,0-24.781-25.565c-4.706,1.09-36.377,8.3-55.661,9.4-20.87,1.192-18.485.994-23.256,3.975s-16.7,20.672-51.084,28.623S92.927,112.3,92.927,112.3s70.96-16.3,84.08-30.412,41.742-40.351,55.656-44.923c10.258-3.37,22.893-4.8,28.825-5.313-19.781-11.525-34.285-16.7-43.208-19.023-9.864,9.591-31.235,33.151-44.633,43.2-14.471,10.853-29.237,24.637-57.83,25.249s-54.642,1.749-65.747.764c5.6-6.2,44.247-17.744,70.087-21.361s66.152-37.727,66.668-40.828-28.166-3.1-44.7,6.46S122.483,54.533,64.342,60.993,0,65.644,0,65.644s33.076-4.91,63.309-30.233S131.268,1.819,147.548.786s56.848-3.1,72.869,9.819q-.424.385-.9.831c9.732,1.771,25.779,6.8,49.227,20.358,42.643,24.66,62.982,53.654,82.685,80.4a211.106,211.106,0,0,0-6.124-20.589c-13-12.785-24.116-22.861-24.116-22.861a194.271,194.271,0,0,1,18.686,9.118c-5.02-11.395-11.738-23.454-20.494-33.409C294.836,16.548,229.881,1.3,229.881,1.3s40.147,4.651,59.011,14.212,58.14,26.357,66.668,45.221c3.231,7.147,4.682,18.637,5.237,30.15,16.713,11.815,34.119,28.085,42.05,48.146,12.591,31.847,5.679,71.255,1.414,81.435,1.935,5.179,3.538,9.75,4.723,13.477a185.162,185.162,0,0,1,4.776,18.852c10.2-13.176,21.745-46.381,21.745-69.448,0-25.195-31.242-47.03-31.242-47.03s43.67,9.406,43,54.084c-.586,38.927-24.632,70.2-30.813,77.61,2.534,16.594,3.457,30.254,3.457,30.254s-3.106,24.676-6.172,24.673C411.921,322.937,410.122,314.321,408.987,286.911Zm-7.053-72.551c1.086-25.816-9.4-59.05-17.434-77.138-3.079-6.927-12.641-18.188-23.432-29.6-.09,7.951-.442,14.67-.666,18.262C374.931,150.338,391.732,188.051,401.934,214.36ZM290.434,52.21a194.6,194.6,0,0,0-24.789-18.091c-.651-.394-1.295-.78-1.935-1.162-2.637,3.488-9.371,11.935-15.742,16.13-3.786,2.492.148,1.9,8.077,1.3,3.481-.261,7.733-.522,12.438-.522A95.512,95.512,0,0,1,290.434,52.21Z" id="联合_1"></path>
      <path fill="#2f7753" transform="translate(8173.344 -733.068)" d="M72.055,336.668c-4.672-5.3-14-26.164-15.933-39.367-2.03-13.84-1.183-45.072-1.183-45.072s14.206,30.11,17.758,43.95c2.534,9.874,3.691,28.6,2.549,37.095,8.447-9.056,18.356-20.754,28.184-32.847C98.7,294.761,89.613,274.312,87.7,261.3c-2.03-13.84-1.184-45.072-1.184-45.072s14.206,30.11,17.758,43.95c2.418,9.424,3.583,26.912,2.691,35.872,9.847-12.231,19.425-24.586,27.161-34.777a1.589,1.589,0,0,1-.369-.237c-4.532-3.771-15.449-25.659-17.962-39.419s-2.755-45-2.755-45,15.249,29.6,19.281,43.3c3.142,10.68,5.012,31.969,3.54,39.067,3.932-5.2,7.318-9.747,9.925-13.3,2.914-3.976,7.188-10.372,12.189-18.121-4.431-4.259-14.238-24.119-16.539-36.72-2.357-12.92-2.587-42.257-2.587-42.257s14.317,27.79,18.1,40.66c2.646,8.994,4.331,26,3.654,34.22,7.1-11.1,15.338-24.35,23.16-37.118a1.731,1.731,0,0,1-.163-.13c-3.975-3.551-13.149-23.671-14.984-36.183s-1.07-40.747-1.07-40.747,12.844,27.221,16.054,39.733c2.33,9.077,3.372,26.427,2.251,33.915,11.2-18.334,21.23-35.146,25.335-42.4a1.44,1.44,0,0,1-.333-.2c-4.089-3.2-13.919-21.784-16.161-33.476S192.293,68.6,192.293,68.6s13.729,25.131,17.349,36.775c2.645,8.511,4.261,24.96,3.341,31.948,4.4-7.962,11.844-21.83,19.121-35.478a1.222,1.222,0,0,1-.495-.26c-3.976-3.21-13.15-21.406-14.985-32.72s-1.07-36.85-1.07-36.85S228.4,56.635,231.61,67.95c2.318,8.169,3.362,23.751,2.266,30.574,5.689-10.681,11.115-20.915,14.715-27.716-.517-.027-.8-.046-.8-.046a75.756,75.756,0,0,1,0-33.99C252.165,19.082,261.507,0,261.507,0s.795,30.611,0,39.357-9.541,27.032-9.541,27.032,17.094-10.336,24.25-12.523,40.748-8.547,40.748-8.547S291.124,65,279.994,68.576c-9.493,3.051-26.217,2.488-30.933,2.256-3.561,7.567-9.055,19.235-14.278,30.3,5.263-2.028,23.048-3.1,33.088-.766,10.537,2.455,32.643,12.137,32.643,12.137s-25.945,2.133-36.952.841c-9.287-1.091-26.849-7.236-29.6-10.463-5.521,11.7-10.6,22.431-12.584,26.529-1.274,2.634-3.652,6.987-6.616,12.226,7.535-2.088,26.6-3.028,37.686-.445,12.453,2.9,38.578,14.343,38.578,14.343s-30.663,2.522-43.671.994c-10.427-1.224-29.678-7.84-34.37-11.768-7.49,13.108-17.7,30.276-23.836,40.592,6.854-1.819,27.24-1.553,38.626,1.952,12.22,3.763,37.484,17,37.484,17s-30.764.376-43.634-2.055c-10.669-2.016-30.353-10.443-33.866-14.561-.754,1.267-1.418,2.385-1.977,3.327-4.129,6.961-12.389,20.783-21.421,34.929,7.8-1.508,26.637-1.092,37.414,2.226,12.22,3.763,37.484,17,37.484,17s-30.764.376-43.634-2.055c-10.2-1.927-28.626-9.709-33.306-13.989-5.568,8.635-11.33,17.21-16.523,24.239-1.737,2.351-3.666,4.966-5.733,7.769,7.394-1.624,27.707-1.057,39.19,2.537,12.573,3.935,38.633,17.56,38.633,17.56s-31.531,0-44.753-2.6c-10.947-2.156-31.186-10.851-34.879-15.044-8.556,11.592-19.1,25.838-28.4,37.956,7.217-2,30.741-1.847,44.177,1.8,14.226,3.858,44.238,17.506,44.238,17.506s-34.735.511-49.549-1.965c-12.758-2.131-37.268-11.407-40.309-15.462-6.355,8.249-12.026,15.355-15.925,19.716-2.877,3.218-7.152,7.928-11.955,13.191,9.081-1.885,30.171-2.091,42.562,1.118,14.294,3.7,44.277,17.413,44.277,17.413s-35.2,1.613-50.134-.587c-12.188-1.8-34.877-10.149-39.726-14.639-14.118,15.447-31.049,33.807-31.049,33.807L0,411.59S47.939,362.238,72.055,336.668Z" id="联合_2"></path>
      <g id="组_7">
        <path fill="#519886" d="M8233.462-857.895s-11.628-16.021-42.895,0-27.391,69.769-26.357,75.712,6.367,28.455,11.535,38.016c-3.058-.917-14.978-5.89-19.112-3.823s-3.886,27.283-.949,34.283-10.671,6.541-11.742,18.162,1.147,44.372-.4,49.8-12.662,34.626-12.662,64.342-36.178,55.815-39.8,59.691-23.515,27.907-24.032,50.905-.517,47.029-10.594,63.825-23.256,13.437-35.918,23.773-27.759,46.672-23.331,72.5,59.249,56.09,59.249,56.09L8176.1-297.423l45.468-92.991,49.448-178.6v-79.706l-10.333-92.253Z" id="路径_30"></path>
        <path fill="#b7d99d" d="M8240.957-857.378s-16.021-1.034-23,6.977-18.862,20.672-20.672,32.3,0,49.613,4.134,60.983,9.72,44.858-7.593,69.148c6.749,13.049,56.689,32.146,56.689,32.146s-30.345-.915-58.141-13.437c-.43,10.733,2.583,40.828,13.437,58.4s13.437,34.626,11.887,44.187-31.518,33.572-55.04,50.13-40.828,42.12-44.962,52.972,52.2,49.355,52.2,49.355l-54.523-26.1s2.85,36.951-17.571,61.5c17.062,9.819,72.36,36.434,72.36,36.434s-73.394-26.615-76.753-25.323-29.247,10.956-38.653,30.776,9.406,94.058,9.406,94.058l112.2-25.53,60.467-144.111s29.225-85.324,35.271-120.26,5.711-139.744,2.016-164.6-7.727-42.662-9.406-57.107-17.468-48.709-19.483-61.81S8240.957-857.378,8240.957-857.378Z" id="路径_31"></path>
      </g>
      <g id="组_9">
        <path fill="#5aa07b" d="M8024.334-251.975s75.112-63.758,131.009-83.846,131.446-60.264,294.771-36.246c1.311,4.367-91.707,128.389-145.857,167.255s-130.136,73.365-210.489,86.03-106.991-9.171-110.048-10.917-17.031-45.853-17.031-45.853l17.031-58.954Z" id="路径_58"></path>
        <path fill="#0e7768" transform="translate(7952.309 -373.885)" d="M75.219,189.675c-18.916,12.272-36.472,25-50.8,37.917-43.045,38.8-16.078.168-16.078.168s8.734-11.086,57.442-42.326q1.605-1.03,3.238-2.061c-.1-4.738-.478-37.2,6.375-63.317-2.351,15.975-.787,48.891-.2,59.464,13.916-8.571,28.97-17.15,43.836-25.309-.225-8.452-.1-43,15.059-74.658-10.09,37.345-8.95,64.134-8.417,71.033,18.339-9.956,36.1-19.176,50.752-26.845-.683-8.718-1.028-35.645,14.449-76.434-9.715,38.7-10.242,65.153-10.068,74.138,10.248-5.378,18.7-9.883,24.357-13.2,6.024-3.526,13.276-7.248,21.29-11.045-.061-4.106-.085-28.286,6.969-59.213a333.967,333.967,0,0,0-2.89,57.3c17.976-8.317,39.173-16.886,58.723-24.446.914-6.135,5.632-33.061,21.684-62.9-9.338,21.734-12.875,51.59-13.708,59.832,18.6-7.1,34.964-13.068,44.54-16.713C342.286,48.7,347.831,25.413,372.465.2c-19.891,29.321-22.652,44.019-23.029,47.876,9.6-3.646,33.057-11.163,56.361-18.451C407.44,17.7,430,0,430,0s-16.64,18.524-19.133,28.041c27.989-8.724,54.272-16.681,54.272-16.681s-20.475,6.751-47.6,16.117c1.534,2.07,8.875,10.85,27.591,17.921-14.033-.125-30-13.51-32.933-16.072-14.062,4.878-29.58,10.351-44.79,15.891,3.906,3.475,20.53,17.359,52.149,32.044-20.273-2.482-52.489-25.241-58.609-29.679-15.248,5.607-29.919,11.2-42.2,16.249q-5.7,2.341-11,4.515c6.005,5.023,29.3,23.366,73.552,45.152-33.437-8.449-72.89-37.059-80.126-42.451-21.329,8.773-38.418,15.928-56.268,24.31,8.875,7.682,49.521,41.5,98.5,60.8-60.44-19.206-97.165-50.329-105.2-57.612-14.259,6.873-29.378,14.727-47.8,24.951-4.02,2.231-8.177,4.52-12.439,6.859,7.592,6.047,36.607,27.267,95.35,49.685-53.433-13.13-93.545-41.8-100.407-46.913-11.9,6.52-24.539,13.418-37.41,20.626,13.492,9.557,74.014,52.436,87.768,62.31-31.577-17.464-83.352-51.115-94.6-58.465-15.3,8.651-30.781,17.709-45.613,27.063,3.374,4.635,24.383,31.734,76.259,64C119.2,233.271,82.287,196.89,75.219,189.675Z" id="联合_4"></path>
      </g>
      <g id="组_8">
        <path fill="#89c065" d="M7625.658-405.258c.437-8.3,43.233-25.765,59.828-22.272s41.486,48.037,47.164,48.91,3.931-41.923-25.765-62.885c11.856-10.442,49.463-15.724,58.955-11.791s23.145,27.512,26.2,50.221,6.988,45.417,11.354,48.91,8.733-50.657,4.367-66.815-30.569-44.543-30.569-44.543,61.575,3.057,72.056,6.114,33.189,13.974,31.879,38.43-8.8,59.017-8.206,73.328,2.092,22.309,8.206,23.182,23.582-25.329,24.019-51.094-13.1-75.549-13.1-75.549,69.233,41.74,82.1,51.531,23.193,13.384,19.624,36.824-15.5,57.047-30.978,71.478-19.651,20.525-19.651,23.145,17.9,4.367,38.429-20.088,29.26-46.29,27.949-68.562c6.712.984,22.838,32.285,24.018,60.265s-2,48.453-16.11,66.144-29.816,20.473-30.18,23.816,10.48,57.644-21.4,82.973-63.321,47.164-131.01,32.316c58.341-37.052,79.479-98.258,64.631-110.048s-60.264,94.764-87.776,97.384-84.72-37.556-95.638-60.265c27.228,7.349,118.134-35.706,123.586-53.714s-14.871-10.868-18.837-9.481-59.769,41.8-88.154,48.784-49.347-21.4-56.334-36.246-17.031-30.132-16.158-44.543c3.057,3.93,51.094,8.3,72.492,2.62s42.36-12.228,37.993-22.708-55.9,5.677-87.34,6.551-30.132-9.171-34.5-16.158-15.285-34.063-13.538-58.518c13.1,16.158,66.815,26.2,71.619,15.285s-31.442-5.24-44.543-13.1S7628.278-374.252,7625.658-405.258Z" id="路径_48"></path>
        <path fill="#277349" transform="translate(7635.708 -456.897)" d="M452.886,353.934c-6.605-12.4-28.643-37.285-52.016-59.314-17.088-16.1-36.146-30.191-44.523-39.479-8.426-9.342-36.91-27.041-68.074-44.924,1.937,7.032,4.928,21.18,6.887,46.16,3.1,39.535-14.47,72.353-14.47,72.353s14.212-40.053,5.684-85.532c-4.584-24.449-7.9-35.109-9.985-39.739-12.852-7.247-25.789-14.357-37.631-20.773.654,6.17.934,17.823-3.149,32.7-6.161,22.461-14.709,34.984-29.417,57.246s-45.916,47.507-45.916,47.507a305.465,305.465,0,0,0,39.953-45.717c12.32-17.556,19.082-27.629,26.833-50.289,5.889-17.215,6.96-35.921,7.135-43.917-3.753-2.025-7.373-3.969-10.823-5.814-5.282,6.354-32.182,28.919-57.134,36.611-26.436,8.149-75.732,17.095-75.732,17.095s65.4-15.7,88.652-30.014A156.381,156.381,0,0,0,213.8,169.305c-12.454-6.609-21.44-11.278-24.288-12.751-3.24-1.676-17.227-9.733-36.251-20.8-6.909,2.88-39.289,15.711-68.943,16.227-33.413.581-55.815-4.135-55.815-4.135s34.031,2.789,63.081-.575c26.774-3.1,48.269-11.48,54.3-15.809C89.679,98.721,0,45.962,0,45.962L100.063,99.308s11.539,6.307,29.164,15.929c3.418-10.448-5.3-76.157-5.3-76.157s11.557,38.79,10.558,79.026c15.564,8.5,34.962,19.079,55.062,30.032,2.234-4.614,9.813-21.03,11.5-34.717,1.988-16.1,3.776-39.953-1.193-63.011S177.79,0,177.79,0,191.9,15.824,198.86,33.514,209.2,76.251,209.2,97.321c0,18.594-9.6,48.334-11.853,55.066,18.6,10.134,37.459,20.394,54.141,29.448q.289-.191.615-.394c20.155-11.422,39.778-55.1,42.561-76.964s-1.243-66.811-1.243-66.811,11.976,45.94,1.344,83.309c-10.034,35.266-34.339,61.412-37.042,64.243,13.967,7.575,26.064,14.114,34.7,18.746,6.733.243,27.812.441,42.174-5.666,17.294-7.355,36.176-29.418,36.176-29.418A85.1,85.1,0,0,1,345.327,198.3c-12.313,8.815-31.915,10.834-42.443,11.257,33.692,18.3,81.392,53.4,110.648,79.382,29.974,26.615,52.672,63.209,52.672,63.209s-12.08,1.8-13.23,1.8C452.917,353.948,452.886,353.943,452.886,353.934Z" id="联合_3"></path>
      </g>
    </g>
  </g>
</svg>
