<svg viewBox="0 0 1024 1024" height="1024" width="1024" xmlns:xlink="http://www.w3.org/1999/xlink" xmlns="http://www.w3.org/2000/svg">
  <defs>
    <clipPath id="clip-绿植">
      <rect height="1024" width="1024"></rect>
    </clipPath>
  </defs>
  <g clip-path="url(#clip-绿植)" id="绿植">
    <rect fill="#fff" height="1024" width="1024"></rect>
    <path fill="#0f7770" transform="translate(-10489.232 32.443)" d="M11372.09,821.424v9.106h-300.424s-5.55-56.846,31.078-91.616c-.739,4.139,22.2,88.3,22.2,88.3l-2.22-106.518s27.008-13.8,50.688-19.041c-1.849,16.005-20.349,114.244-20.349,114.244l53.277-120.039s29.229-3.863,45.136,2.759c1.112,0-34.777,117.28-34.777,117.28l64.378-112.589s29.6,9.658,48.467,24.836c-11.469,11.314-82.876,83.89-82.876,83.89l96.2-70.092s28.488,27.319,26.269,50.5c-3.7,1.656-111,26.491-111,26.491Z" id="路径_183"></path>
    <g transform="translate(92.514 501.021) rotate(-59)" id="组_12">
      <path stroke-width="6" stroke-linecap="round" stroke="#368679" fill="none" transform="translate(-5673.864 -680.064)" d="M6061.861,699.639s-50.534,191.857-388,342.6" id="路径_107"></path>
      <path stroke-width="6" stroke-linecap="round" stroke="#368679" fill="none" transform="translate(-5513.631 -677.198)" d="M5791,717.491s4.765,125.219-22.1,162.216" id="路径_108"></path>
      <path stroke-width="6" stroke-linecap="round" stroke="#368679" fill="none" transform="translate(-5288.542 -668.282)" d="M5737.716,774.461s-84.637-7.6-116.565,12.163" id="路径_109"></path>
      <path stroke-width="6" stroke-linecap="round" stroke="#368679" fill="none" transform="translate(-5482.76 -651.486)" d="M5886.321,878.286s-132.616-8.579-225.869,36.527" id="路径_110"></path>
      <path stroke-width="6" stroke-linecap="round" stroke="#368679" fill="none" transform="translate(-5770.788 -663.596)" d="M5881.414,966.923s65.177-101.355,34.836-244.99" id="路径_111"></path>
      <path stroke-width="6" stroke-linecap="round" stroke="#368679" fill="none" transform="translate(-5732.554 -636.551)" d="M6042.863,983.464s-157.11-35.477-302.058,11.657" id="路径_112"></path>
      <ellipse fill="#b9539f" transform="translate(261.457 25.553)" ry="12.777" rx="12.777" cy="12.777" cx="12.777" id="椭圆_3"></ellipse>
      <ellipse fill="#b9539f" transform="translate(130.146 36.788)" ry="12.777" rx="12.777" cy="12.777" cx="12.777" id="椭圆_10"></ellipse>
      <ellipse fill="#b9539f" transform="translate(376.035)" ry="12.777" rx="12.777" cy="12.777" cx="12.777" id="椭圆_4"></ellipse>
      <ellipse fill="#b9539f" transform="translate(443.628 96.443)" ry="11.54" rx="11.54" cy="11.54" cx="11.54" id="椭圆_5"></ellipse>
      <ellipse fill="#b9539f" transform="translate(398.291 217.616)" ry="14.425" rx="14.425" cy="14.425" cx="14.425" id="椭圆_6"></ellipse>
      <ellipse fill="#b9539f" transform="translate(305.145 335.491)" ry="14.013" rx="14.013" cy="14.013" cx="14.013" id="椭圆_7"></ellipse>
    </g>
    <g transform="matrix(0.454, -0.891, 0.891, 0.454, 555.947, 671.529)" id="组_24">
      <path stroke-width="6" stroke-linecap="round" stroke="#368679" fill="none" transform="translate(0 1.259)" d="M364.482,321.838S317.011,141.609,0,0" id="路径_107-2"></path>
      <path stroke-width="6" stroke-linecap="round" stroke="#368679" fill="none" transform="translate(239.803 151.25)" d="M20.757,152.384S25.233,34.755,0,0" id="路径_108-2"></path>
      <path stroke-width="6" stroke-linecap="round" stroke="#368679" fill="none" transform="translate(312.449 230.316)" d="M109.5,11.426S29.994,18.568,0,0" id="路径_109-2"></path>
      <path stroke-width="6" stroke-linecap="round" stroke="#368679" fill="none" transform="translate(166.923 94.119)" d="M212.179,34.314S87.6,42.372,0,0" id="路径_110-2"></path>
      <path stroke-width="6" stroke-linecap="round" stroke="#368679" fill="none" transform="translate(103.921 56.542)" d="M0,0S61.227,95.212,32.725,230.141" id="路径_111-2"></path>
      <path stroke-width="6" stroke-linecap="round" stroke="#368679" fill="none" transform="translate(7.751 4.648)" d="M283.75,10.95S136.163,44.277,0,0" id="路径_112-2"></path>
      <ellipse fill="#b9539f" transform="translate(245.61 293.476)" ry="12.002" rx="12.002" cy="12.002" cx="12.002" id="椭圆_3-2"></ellipse>
      <ellipse fill="#b9539f" transform="translate(122.258 282.922)" ry="12.002" rx="12.002" cy="12.002" cx="12.002" id="椭圆_10-2"></ellipse>
      <ellipse fill="#b9539f" transform="translate(353.244 317.48)" ry="12.002" rx="12.002" cy="12.002" cx="12.002" id="椭圆_4-2"></ellipse>
      <ellipse fill="#b9539f" transform="translate(416.74 229.206)" ry="10.841" rx="10.841" cy="10.841" cx="10.841" id="椭圆_5-2"></ellipse>
      <ellipse fill="#b9539f" transform="translate(374.151 109.957)" ry="13.551" rx="13.551" cy="13.551" cx="13.551" id="椭圆_6-2"></ellipse>
      <ellipse fill="#b9539f" transform="translate(286.65 0)" ry="13.164" rx="13.164" cy="13.164" cx="13.164" id="椭圆_7-2"></ellipse>
    </g>
    <g transform="translate(-7009.48 3604.614) rotate(-17)" id="组_6">
      <path fill="#6fb6a8" transform="translate(0)" d="M7990.624-439.387l-101.789-72.429,100.8,47.433-92.325-61.832,92.325,49.974-92.325-66.914,88.937,49.127-78.655-59.352,77.334,27.165-88.969-62.753,94.672,43.116-1.368-7.528L7885-604.253l107.676,39.238-2.054-5.019L7879.753-618.4l109.5,40.835,1.368-7.528-122.96-49.275,122.96,35.588v-5.475l-154.9-56.8,144.633,40.607-129.576-55.663,127.523,38.782-150.084-61.845,155.4,47.154-166.075-65.244,154.807,47.45-5.933-6.3s-137.606-61.024-165.482-61.914C7840.38-736.84,7957.82-696.8,7957.82-696.8s-122.778-54.271-153.918-60.2,161.332,46.857,161.332,46.857l-156.883-54.864,149.469,38.553-145.91-41.222,154.51,31.139-1.186-4.152L7795.9-774.5l153.324,17.5s-118.032-27.581-164.89-31.732c.3-1.779,154.807,12.159,154.807,12.159s-157.477-34.1-163.7-35.588,167.856,24.911,167.856,24.911l-4.152-6.524s-158.069-37.367-163.7-37.664,158.959,26.691,158.959,26.691l-6.228-7.414-147.689-26.691,129.6,14.532s-59.744-17.862-159.207-24.25c37.868-.913,119.766,3.65,119.766,3.65l-137.56-14.6,118.168,3.194-124.328-8.213,116.8-7.072-119.768,2.053L7803.9-882.8l-79.956,8.9,101.291-24.392-5.264-2.632L7706.787-875.83l95.287-32.64-15.168-5.011-4.485-1.482s-.878,9.3-37.379,21.935-57.909,12.81-57.909,12.81,33.868-16.144,52.119-20.707,33.517-10.7,40.36-14.039-16.5-4.212-16.5-4.212-10.177,10.88-34.043,18.25-58,11.217-58,11.217,38.741-15.658,51.565-19.843,38.336-9.624,38.336-9.624l-17.591-3.873s-12.1,10.257-33.432,15.252-46.435,6.871-46.435,6.871,24.432-10.246,41.576-14.971,33.611-7.694,33.611-7.694l-2.024-.33-10.395-1.695s-26.511,9.894-36.688,11.352-43.345,3.685-43.345,3.685,31.762-10.9,42.467-12.471,32.289-3.673,32.289-3.673-43.817,1.035-66.631-1.018-37.184-6.616-37.184-6.616,37.039-3.65,53.879-2.509,45.355,9.125,45.355,9.125-56.575-18.25-67.068-26.691,34.676,5.7,42.888,9.581,48.135,20.929,48.135,20.929S7713-934.354,7695.9-945.76s-27.374-17.338-27.374-17.338,29.655,3.422,44.939,10.494,37.87,26.568,40.607,29.428,12.09,2.966,12.09,2.966-27.84-19.619-39.693-33.078-17.793-30.113-17.793-30.113,32.036,19.391,39.009,28.06,20.76,31.938,22.356,35.132,16.869,5.248,16.869,5.248L7730.313-993.4l80.02,86.688,10.881,4.387-66.333-94.585,87.391,104.938-68.087-119.854,87.741,130.383s-68.088-134.419-66.509-132.489,85.636,145.826,85.636,145.826l3.743,4.7-49.048-138.473,63.875,147.37s-23.04-124.557-38.781-144.861c36.272,44.713,51.557,160.6,53.154,165.392s2.053,2.534,2.053,2.534-9.581-128.232-20.531-153.326c15.056,7.528,30.568,159.461,29.657,163.339s4.1,6.616,4.1,6.616.685-127.979-6.843-151.7c17.793,30.569,18.021,168.358,18.021,168.358l2.831,4.382s7.986-112.4,5.931-136.422c8.62,5.042,5.655,133.454,5.655,133.454s24.911-89.988,24.911-111.721c4.152,2.288-8.6,115.283-19.277,131.889.89,2.371,36.774-82.447,37.664-107.952,2.669,33.808-32.938,124.557-32.938,124.557l45.691-109.433L7970-738.027v5.633s48.934-86.3,52.788-108.246c1.78,8.007-48.043,124.854-48.043,124.854l1.483,1.779,56.643-106.17L7981.564-696.8l2.057,4.744,59.333-108.246-56.644,130.49,1.482,4.447,63.466-104.984-59.907,122.481,1.326,3.855,66.29-99.646-64.947,117.44v5.773l69.693-100.674L7995.8-598.778v7.253l74.438-102.612L7995.8-571.359v6.343l87.19-113.107L7995.8-541.7v4.152l97.867-88.673-88.674,103.2,108.84-33.808L7994.02-495.438l94.309-16.378-95.651,47.433Z" id="路径_20"></path>
      <path fill="#6fb6a8" transform="translate(-13.569 -11.56)" d="M7733-915.3s70.224,12.349,92.808,22.614,75.063,38.781,104.71,78.932,42.35,66.226,52.465,105.851,21.619,74.849,19.964,165.12-2.2,158.25-2.2,158.25l7.212,4.638s2.583-94.2,2.583-121.485,1.874-98.619-4.744-138.2-24.329-107.059-44.782-137.606-41.793-63.305-80.686-89.266a275.813,275.813,0,0,0-88.513-39.238C7774.934-910.019,7733-915.3,7733-915.3Z" id="路径_19"></path>
    </g>
    <g id="组_25">
      <path fill="#51a39f" transform="translate(-10877 -1)" d="M11453.121,298.893c-5.166-.738-65.683,84.871-65.683,84.871l3.478,74.195-18.237-55.745-54.612,94.465,33.948,67.159-49.446-36.9s-38.363,117.584-34.674,134.558,46.481,42.563,46.481,42.563l-50.185-15.5-18.45,84.871,68.635,71.587,84.133,31.734,121.033-212.546s11.07-57.565,8.118-60.517c-.783.561-39.344,15.27-39.344,15.27s37.555-45.271,41.145-51.679-11.395-108.24-20.251-119.31c-1.812,1.64-21.291,33.443-21.291,33.443l8.007-68.129S11450.907,354.243,11453.121,298.893Z" id="路径_176"></path>
      <path fill="#155b5b" transform="translate(-10877 -1)" d="M11381.006,804.819s8.3-96.072,19.214-151.531,62.01-169.436,41.922-299.132c7.86,20.524,12.664,111.356-1.746,169.872s-50.22,167.252-51.264,279.263C11388.429,815.736,11381.006,804.819,11381.006,804.819Z" id="路径_177"></path>
    </g>
    <g id="组_26">
      <path fill="#145156" transform="translate(-10877 -1)" d="M10964.394,691.716c10.954,2.62,80.152-12.832,108.705,53.008,10.044-.873,52.433,12.932,52.433,12.932l-38.429,4.367,81.665,89.958,100.435,1.747-43.669,8.3,8.734,19.214,134.937,7.86,3.931-27.075-119.217-166.815s-46.725-50.656-73.8-62.883c-1.747,10.917,0,37.555,0,37.555l-22.708-45.852s-58.954-17.031-88.648-5.677c5.5,11.936,13.975,27.075,13.975,27.075s-38.1-20.9-39.288-20.307S10989.792,649.323,10964.394,691.716Z" id="路径_178"></path>
      <path fill="#28696d" transform="translate(-10877 -1)" d="M11251.474,838.444s-102.118-210.955-251.222-165.724c156.157-50.941,253.572,161.021,253.572,161.021Z" id="路径_179"></path>
    </g>
    <g id="组_27">
      <path fill="#dceee2" transform="translate(-10877 -1)" d="M11705.314,622.194s-125.46,12.489-164.063,34.629c-2.271,3.974-13.058,39.171-13.058,39.171l-5.108-35.2s-59.607,20.437-86.857,47.686c.567,1.135,3.406,38.6,3.406,38.6l-15.328-25.546s-25.547,31.791-36.333,55.066,27.25,97.076,27.25,97.076,101.049-17.6,105.591-21.572-11.921-23.276-11.921-23.276l32.358,14.192s49.389-23.843,53.931-35.765c0,.568-29.52-13.625-29.52-13.625l51.092-3.406s35.766-47.119,41.442-64.15h-22.708s38.036-26.682,45.983-55.634A142.315,142.315,0,0,1,11705.314,622.194Z" id="路径_180"></path>
      <path fill="#09484d" transform="translate(-10877 -1)" d="M11420.762,840.794s39.974-41.318,69.2-61.808,127.312-58.785,184.417-135.374c-64.159,96.072-119.467,92.173-191.471,150.154-53.084,42.745-60.465,54.082-60.465,54.082Z" id="路径_181"></path>
    </g>
    <path fill="#5aa07b" transform="translate(-10877 -1)" d="M11071.366,895.212v14.411h354.591s6.551-89.958-36.682-144.981c.873,6.55-26.2,139.74-26.2,139.74l2.62-168.562s-31.878-21.834-59.826-30.132c2.183,25.328,24.018,180.789,24.018,180.789L11267,696.518s-34.5-6.114-53.276,4.367c-1.311,0,41.049,185.593,41.049,185.593l-75.984-178.169s-34.936,15.284-57.206,39.3c13.537,17.9,97.818,132.753,97.818,132.753l-113.539-110.919s-33.625,43.232-31,79.914c4.367,2.62,131.007,41.922,131.007,41.922Z" id="路径_182"></path>
  </g>
</svg>
