<svg viewBox="0 0 1024 1024" height="1024" width="1024" xmlns:xlink="http://www.w3.org/1999/xlink" xmlns="http://www.w3.org/2000/svg">
  <defs>
    <clipPath id="clip-path">
      <path stroke-width="1" stroke="#707070" fill="none" transform="translate(-15026.45 -6017.916)" d="M15122.559,6020.253s6.8,17.87,33.031,19.619,40.026-21.956,40.026-21.956,43.646,10.336,46.29,11.025,11.156,4.969,13.682,11.382,49.343,121.415,51.11,124.446,8.589,27.026-12.377,28.29-116.95,3.031-116.95,3.031l-92.192-5.051s-29.493.717-38.956.785-23.434-.28-18.887-29.581,36.494-112.922,36.494-112.922,3.174-12.725,19.58-17.92S15122.559,6020.253,15122.559,6020.253Z" id="路径_624"></path>
    </clipPath>
    <clipPath id="clip-path-2">
      <path stroke-width="1" stroke="#707070" fill="none" transform="translate(-13260.167 -4602.814)" d="M13318.635,4604.166s14.193,6.985,26.361,5.183a90.481,90.481,0,0,0,22.309-6.534l3.828,60.388h-109.059s-3.152-5.858-1.352-10.815,6.76-10.365,16-13.745,22.758-5.633,28.617-10.59S13318.635,4604.166,13318.635,4604.166Z" id="路径_580"></path>
    </clipPath>
    <clipPath id="clip-path-3">
      <path stroke-width="1" stroke="#707070" fill="none" transform="translate(0 0)" d="M58.468,1.351S72.661,8.336,84.829,6.534A90.482,90.482,0,0,0,107.137,0l3.83,60.388H1.908S-1.246,54.529.556,49.572s6.76-10.365,16-13.745,22.758-5.633,28.618-10.59S58.468,1.351,58.468,1.351Z" id="路径_580-2"></path>
    </clipPath>
    <clipPath id="clip-path-4">
      <path stroke-width="1" stroke="#707070" fill="none" transform="translate(-13255.541 -4402.321)" d="M13302.635,4409.987l-47.094,172.15s24.336,21.405,57.457,29.067,57.008,4.958,57.008,4.958l10.592-68.725,3.607,49.8s53.4-4.957,69.623-9.238,47.979-11.724,47.979-11.724l-54.529-173.952Z" id="路径_574"></path>
    </clipPath>
    <clipPath id="clip-path-5">
      <path fill="#f5711e" transform="translate(-13225.383 -4289.131)" d="M13381.576,4289.131c2.766,2.051,12.445,12.379,28.6,11.614s22.877-10.227,24.959-9.88,18.533,5.706,28.77,17.332,20.408,31.523,28.9,48.806,24.607,66.9,26.367,72.171-5.863,95.383-5.863,95.383-45.99,1.464-55.068-5.566c2.039-10.663,4.1-22.847,4.1-22.847s-38.664,10.25-70.889,5.858-59.172-3.516-73.523-16.4c-1.035-6.854,4.98-58,4.98-58s-41.936-14.213-64.4-38.965-33.129-39.223-33.129-40.365,37.127-24.846,47.025-41.982c1.99,1.591,44.105,33.763,44.105,33.763s16.424-24.26,30.727-34.431A120.016,120.016,0,0,1,13381.576,4289.131Z" id="路径_570"></path>
    </clipPath>
    <clipPath id="clip-团队">
      <rect height="1024" width="1024"></rect>
    </clipPath>
  </defs>
  <g clip-path="url(#clip-团队)" id="团队">
    <rect fill="#dae3ff" height="1024" width="1024"></rect>
    <g transform="translate(-15366.264 -3750)" id="组_224">
      <g transform="translate(16 51.524)" id="组_219">
        <path fill="#f3c044" transform="translate(15647 3910.5)" d="M0,57.016l.4.39V15.5A15.5,15.5,0,0,1,15.9,0H131.287a15.5,15.5,0,0,1,15.5,15.5V67.8a15.5,15.5,0,0,1-15.5,15.5H16.17L0,99.471Z" id="联合_24"></path>
        <path fill="#fff" transform="translate(15726.257 3926.271)" d="M0,43.672V35.585H46.907v8.087ZM0,25.88V17.792H29.923V25.88ZM0,8.087V0H52.568V8.087Z" id="联合_25"></path>
        <path fill="#fb1100" transform="translate(15689.055 3923.844)" d="M0,21.836V0A21.836,21.836,0,0,1,21.836,21.836Z" id="交叉_2"></path>
        <path fill="#67b5d1" transform="translate(15664.792 3926.271)" d="M21.836,43.672a21.842,21.842,0,0,1-8.5-41.956A21.7,21.7,0,0,1,21.836,0V21.836H43.672A21.818,21.818,0,0,1,21.836,43.672Z" id="减去_11"></path>
      </g>
      <g transform="translate(123 -94.161)" id="组_223">
        <rect fill="#6875f3" transform="translate(15730.54 3993)" rx="9" height="213.102" width="272.135" id="矩形_152"></rect>
        <g transform="translate(15761.102 4089.105)" id="组_220">
          <rect fill="#fff" transform="translate(0 0)" height="94.015" width="22.982" id="矩形_153"></rect>
          <rect fill="#f6a040" transform="translate(0 29.249)" height="64.766" width="22.982" id="矩形_154"></rect>
        </g>
        <g transform="translate(15809.155 4059.855)" id="组_221">
          <rect fill="#fff" height="123.265" width="22.982" id="矩形_153-2"></rect>
          <rect fill="#f6a040" transform="translate(0 43.874)" height="79.391" width="22.982" id="矩形_154-2"></rect>
        </g>
        <g transform="translate(15947.042 4103.729)" id="组_226">
          <rect fill="#fff" transform="translate(0 0)" height="79.391" width="22.982" id="矩形_153-3"></rect>
          <rect fill="#f6a040" transform="translate(0 39.695)" height="39.695" width="22.982" id="矩形_154-3"></rect>
        </g>
        <g transform="translate(15901.079 4081.573)" id="组_225">
          <rect fill="#fff" transform="translate(0 0)" height="101.548" width="22.982" id="矩形_153-4"></rect>
          <rect fill="#f6a040" transform="translate(0 58.733)" height="42.815" width="22.982" id="矩形_154-4"></rect>
        </g>
        <g transform="translate(15855.117 4015.981)" id="组_222">
          <rect fill="#fff" height="167.138" width="22.982" id="矩形_153-5"></rect>
          <rect fill="#f6a040" transform="translate(0 75.212)" height="91.926" width="22.982" id="矩形_154-5"></rect>
        </g>
      </g>
    </g>
    <g transform="translate(-14895.813 -5609.963)" id="组_218">
      <g transform="translate(15047.01 6299.807)" id="组_212">
        <rect fill="#7971a2" transform="translate(20.311 13.848)" height="199.335" width="21.233" id="矩形_138"></rect>
        <rect fill="#7971a2" transform="translate(189.254 13.848)" height="199.335" width="20.31" id="矩形_139"></rect>
        <rect fill="#223ea1" height="27.696" width="227.104" id="矩形_137"></rect>
      </g>
      <g transform="translate(15056.433 5900.871)" id="组_213">
        <path fill="#583b3b" transform="translate(-15064.207 -5900.871)" d="M15140.143,5923.407c-1.583-1.508-6.314-17.934,5.053-21.47s18.943,2.526,20.711,6.567,2.519,10.129,0,14.9c1.5-.148,14.718,1.023,20.742,11.126s3.152,15.725,4.124,22.525,1.556,10.1,6.413,9.327,7.965-.389,11.852,5.052,2.915,12.241,9.133,17.487,22.927,8.549,31.282,15.156,17.293,16.516,9.521,27.979-188.867,2.193-188.867,1.4-9.109-8.491-4.687-18.042,12.293-11.674,16.716-13.354,10.613-3.715,13.974-14.062,6.633-17.423,14.062-19.987,8.225-6.544,8.225-6.544-.6-10.2,1.061-18.219S15129.626,5923.789,15140.143,5923.407Z" id="路径_585"></path>
        <path fill="#f1bbb4" transform="translate(-15069.183 -5907.987)" d="M15147.936,5995.451v19.236s-17.68,4.663-18.847,5.44,7.577,16.322,7.577,16.322l20.79,6.8h22.151l20.6-15.544,2.331-10.686-26.813-2.332v-21.179Z" id="路径_587"></path>
        <path fill="#f1c0ba" transform="translate(-15068.381 -5903.683)" d="M15161.942,5937.479s-18.235,22.419-32.733,22.569-10.312,14.2-9.415,15.693,6.575,9.118,13.6,4.185c0,1.2,11.061,16.292,25.409,15.843s20.477-2.092,27.352-18.234c.148,0,10.911,1.943,13.6-4.334s2.092-17.039-9.565-13.452C15168.667,5950.034,15161.942,5937.479,15161.942,5937.479Z" id="路径_586"></path>
      </g>
      <g transform="translate(15021.577 6008.925)" id="组_215">
        <path fill="#f1b36d" transform="translate(-15026.45 -6017.916)" d="M15122.559,6020.253s6.8,17.87,33.031,19.619,40.026-21.956,40.026-21.956,43.646,10.336,46.29,11.025,11.156,4.969,13.682,11.382,49.343,121.415,51.11,124.446,8.589,27.026-12.377,28.29-116.95,3.031-116.95,3.031l-92.192-5.051s-29.493.717-38.956.785-23.434-.28-18.887-29.581,36.494-112.922,36.494-112.922,3.174-12.725,19.58-17.92S15122.559,6020.253,15122.559,6020.253Z" id="路径_588"></path>
        <g clip-path="url(#clip-path)" id="蒙版组_25">
          <g transform="translate(5.009 12.98)" id="组_214">
            <path stroke-width="3" stroke-linecap="round" stroke="#ffe6c4" fill="none" transform="translate(-15034.807 -6032.403)" d="M15070.047,6037.544c.854,1.281,16.221,26.04,20.917,52.08" id="路径_590"></path>
            <path stroke-width="3" stroke-linecap="round" stroke="#ffe6c4" fill="none" transform="translate(-15032.751 -6036.664)" d="M15043.259,6111.055s8.537-16.09,17.4-18.06" id="路径_591"></path>
            <path stroke-width="3" stroke-linecap="round" stroke="#ffe6c4" fill="none" transform="translate(-15034.473 -6038.357)" d="M15065.668,6126.541l17.4-11.493" id="路径_592"></path>
            <path stroke-width="3" stroke-linecap="round" stroke="#ffe6c4" fill="none" transform="translate(-15032.914 -6039.915)" d="M15045.393,6139.591l27.583-4.269" id="路径_593"></path>
            <path stroke-width="3" stroke-linecap="round" stroke="#ffe6c4" fill="none" transform="translate(-15033.925 -6042.619)" d="M15058.554,6170.535l14.776,7.88" id="路径_594"></path>
            <path stroke-width="3" stroke-linecap="round" stroke="#ffe6c4" fill="none" transform="translate(-15032.751 -6043.274)" d="M15043.259,6179.071l1.313,22.658" id="路径_595"></path>
            <path stroke-width="3" stroke-linecap="round" stroke="#ffe6c4" fill="none" transform="translate(-15016.497 -6044.205)" d="M15056.558,6191.166l-19.7,11.164" id="路径_596"></path>
            <path stroke-width="3" stroke-linecap="round" stroke="#ffe6c4" fill="none" transform="translate(-15031.875 -6040.72)" d="M15031.875,6145.978s15.435-2.626,14.778,12.15" id="路径_597"></path>
            <path stroke-width="3" stroke-linecap="round" stroke="#ffe6c4" fill="none" transform="translate(-15026.188 -6138.945)" d="M15065.662,6161.454s-1.97-15.105,15.105-15.105" id="路径_598"></path>
            <path stroke-width="3" stroke-linecap="round" stroke="#ffe6c4" fill="none" transform="translate(-15026.188 -6089.128)" d="M15065.662,6161.454s-1.97-15.105,15.105-15.105" id="路径_600"></path>
            <path stroke-width="3" stroke-linecap="round" stroke="#ffe6c4" fill="none" transform="translate(-15035.383 -6039.448)" d="M15065.662,6161.454s-1.97-15.105,15.105-15.105" id="路径_601"></path>
            <path stroke-width="3" stroke-linecap="round" stroke="#ffe6c4" fill="none" transform="translate(-15034.473 -6034.915)" d="M15065.668,6076.469l22.657-6.238" id="路径_599"></path>
            <path stroke-width="3" stroke-linecap="round" stroke="#ffe6c4" fill="none" transform="translate(201.49 7.737) rotate(30)" d="M0,12.885S1.864-7.529,17.063,3.033" id="路径_602"></path>
            <path stroke-width="3" stroke-linejoin="round" stroke-linecap="round" stroke="#ffe6c4" fill="none" transform="translate(-15049.334 -6034.559)" d="M15259.159,6065.74s12.15-1.777,12.15,7.417-10.18,8.538-10.18,8.538" id="路径_603"></path>
            <path stroke-width="3" stroke-linecap="round" stroke="#ffe6c4" fill="none" transform="translate(211.59 90.403) rotate(-74)" d="M0,0,12.048,18.155" id="路径_604"></path>
            <path stroke-width="3" stroke-linecap="round" stroke="#ffe6c4" fill="none" transform="matrix(0.454, -0.891, 0.891, 0.454, 238.849, 77.352)" d="M0,0,12.048,18.155" id="路径_606"></path>
            <path stroke-width="3" stroke-linecap="round" stroke="#ffe6c4" fill="none" transform="matrix(0.454, -0.891, 0.891, 0.454, 200.767, 103.405)" d="M0,0,11.417,22.407" id="路径_607"></path>
            <path stroke-width="3" stroke-linecap="round" stroke="#ffe6c4" fill="none" transform="translate(-15050.756 -6036.882)" d="M15277.656,6095.838c.656,1.314,5.582,14.448,5.582,14.448" id="路径_605"></path>
            <path stroke-width="3" stroke-linejoin="round" stroke-linecap="round" stroke="#ffe6c4" fill="none" transform="translate(244.161 112.444) rotate(-164)" d="M0,.187s12.15-2.4,12.15,10.02S1.971,21.74,1.971,21.74" id="路径_608"></path>
            <path stroke-width="3" stroke-linecap="round" stroke="#ffe6c4" fill="none" transform="translate(-15051.221 -6042.915)" d="M15283.7,6174.771s12.806-3.285,12.806,9.193" id="路径_609"></path>
            <path stroke-width="3" stroke-linecap="round" stroke="#ffe6c4" fill="none" transform="translate(-15051.954 -6041.707)" d="M15293.274,6158.657l13.461,14.4" id="路径_610"></path>
            <path stroke-width="3" stroke-linecap="round" stroke="#ffe6c4" fill="none" transform="translate(-15050.09 -6041.055)" d="M15269,6150.175l11.115,15.408" id="路径_611"></path>
            <path stroke-width="3" stroke-linecap="round" stroke="#ffe6c4" fill="none" transform="translate(-15052.648 -6043.577)" d="M15302.319,6198.669l14.2-15.661" id="路径_612"></path>
            <path stroke-width="3" stroke-linecap="round" stroke="#ffe6c4" fill="none" transform="translate(-15049.334 -6044.145)" d="M15259.159,6190.4h19.7" id="路径_613"></path>
            <path stroke-width="3" stroke-linecap="round" stroke="#ffe6c4" fill="none" transform="translate(-15050.152 -6045.09)" d="M15269.826,6202.708a9.81,9.81,0,0,1,2.524,9.851" id="路径_614"></path>
            <path stroke-width="3" stroke-linecap="round" stroke="#ffe6c4" fill="none" transform="translate(-15050.974 -6045.09)" d="M15280.5,6202.708l13.64,11.619" id="路径_615"></path>
            <path stroke-width="3" stroke-linecap="round" stroke="#ffe6c4" fill="none" transform="translate(-15048.987 -6036.683)" d="M15254.646,6093.264c1.889,1.011,12.245,17.429,12.245,17.429" id="路径_616"></path>
            <path stroke-width="3" stroke-linecap="round" stroke="#ffe6c4" fill="none" transform="translate(-15048.388 -6031.976)" d="M15267.3,6031.976c-1.011.5-18.439,36.373-20.46,58.1" id="路径_617"></path>
            <path stroke-width="3" stroke-linecap="round" stroke="#ffe6c4" fill="none" transform="translate(-15046.813 -6035.229)" d="M15245.265,6074.323l-18.944,14.96" id="路径_618"></path>
            <path stroke-width="3" stroke-linecap="round" stroke="#ffe6c4" fill="none" transform="translate(-15044.102 -6032.817)" d="M15191.025,6058.834l18.691-15.914" id="路径_619"></path>
            <path stroke-width="3" stroke-linecap="round" stroke="#ffe6c4" fill="none" transform="translate(-15039.246 -6033.805)" d="M15127.821,6055.78h20.207" id="路径_620"></path>
            <path stroke-width="3" stroke-linecap="round" stroke="#ffe6c4" fill="none" transform="translate(-15041.811 -6033.439)" d="M15174.084,6051.022l-12.883,16.518" id="路径_621"></path>
            <path stroke-width="3" stroke-linecap="round" stroke="#ffe6c4" fill="none" transform="translate(-15043.922 -6032.082)" d="M15188.826,6033.344c-.252,1.263,0,11.114,0,11.114" id="路径_622"></path>
            <path stroke-width="3" stroke-linecap="round" stroke="#ffe6c4" fill="none" transform="translate(-15041.326 -6032.417)" d="M15163.5,6037.722c-1.516.505-8.589,8.841-8.589,8.841" id="路径_623"></path>
          </g>
          <path fill="#673b95" transform="translate(-15031.763 -6017.844)" d="M15095.6,6026.232l7.174,55.451,122.709-1.793,1.345-59.785-29.444-3.139v40.354l-68.6,1.5-4.185-40.8Z" id="路径_589"></path>
        </g>
      </g>
      <g transform="translate(15060.093 6214.379)" id="组_216">
        <path fill="#673b95" transform="translate(-15068.171 -6240.464)" d="M15081.812,6240.464l-13.641,81.335,102.8-2.526-7.83-28.291,73.757-14.146,14.146,42.436,13.388,4.041a96.062,96.062,0,0,0-2.273-21.471c-2.526-10.608-15.914-58.349-15.914-58.349Z" id="路径_626"></path>
        <path fill="#f0bfb9" transform="translate(-15069.905 -6242.768)" d="M15090.739,6294.558s5.978-17.636,21.82-21.97,45.981-2.767,51.235,11.354,32.18,227.56,32.18,227.56-15.761-.327-16.746,0-37.105,8.539-37.105,8.539Z" id="路径_627"></path>
        <path fill="#f0bfb9" transform="translate(-15076.073 -6242.354)" d="M15171.574,6288.082c3.788,10.609,69.968,225.06,69.968,225.06l21.975-9.093s20.461,3.031,21.471,3.537,11.366-3.537,11.366-3.537l-3.788-6.82s-43.7-201.821-49.256-217.734-42.687-15.661-50.266-13.135S15167.784,6277.473,15171.574,6288.082Z" id="路径_628"></path>
        <path fill="#2f65e5" transform="translate(-15073.746 -6261.732)" d="M15143.147,6532.521s10.312-14.387,24.213-15.134,31.387,10.91,32.134,11.06,6.128,36.17,6.128,36.17l-64.866,1.2Z" id="路径_629"></path>
        <rect fill="#d4f1ff" transform="translate(75.544 287.606)" height="3.693" width="48.929" id="矩形_140"></rect>
        <path fill="#2f65e5" transform="translate(-15081.763 -6261.47)" d="M15245.115,6532.258s11.267-16.836,23.569-18.1,30.468,3.449,30.928,3.679,5.4,7.473,5.979,9.658,4.714,37.48,4.714,37.48l-65.189-1.149Z" id="路径_630"></path>
        <rect fill="#d4f1ff" transform="translate(172.478 287.606)" height="2.77" width="46.159" id="矩形_141"></rect>
      </g>
      <g transform="translate(14963 6067.396)" id="组_211">
        <rect fill="#7971a2" transform="translate(39.697 149.324)" height="302.805" width="20.31" id="矩形_138-2"></rect>
        <rect fill="#7971a2" transform="translate(461.594 149.324)" height="302.805" width="20.31" id="矩形_139-2"></rect>
        <rect fill="#223ea1" transform="translate(0 120.705)" height="33.235" width="521.601" id="矩形_137-2"></rect>
        <path fill="#cfcccb" transform="translate(-14972.552 -6081.251)" d="M15087.352,6082.894l152.034-1.642,1.643,122.482h-152.035Z" id="路径_625"></path>
      </g>
      <g transform="translate(15316.58 6130.864)" id="组_217">
        <path fill="#e98e2b" transform="translate(0 10.155)" d="M20.31,36.928H14a14,14,0,0,1-14-14V0H20.31ZM7.385,3.693V23.08a9.243,9.243,0,0,0,9.232,9.232V3.693Z" id="减去_10"></path>
        <path fill="#e78c29" transform="translate(18.464)" d="M0,0H57.238a0,0,0,0,1,0,0V37.238a20,20,0,0,1-20,20H20a20,20,0,0,1-20-20V0A0,0,0,0,1,0,0Z" id="矩形_142"></path>
        <rect fill="#ffdab2" transform="translate(18.464 18.464)" height="12.925" width="57.238" id="矩形_145"></rect>
      </g>
    </g>
    <g transform="translate(-15997.758 -2543.66)" id="组_210">
      <g transform="translate(16559.098 3286.9)" id="组_209">
        <path fill="#1aa297" transform="translate(-16539.803 -3286.9)" d="M16539.809,3312.5s-.822-22.75,17.375-25.232,27.3,7.859,30.2,22.751-21.514,34.331-21.514,34.331l-26.059-13.236Z" id="路径_584"></path>
        <ellipse fill="#007f72" transform="matrix(0.839, -0.545, 0.545, 0.839, 12.774, 13.471)" ry="3.492" rx="1.746" cy="3.492" cx="1.746" id="椭圆_145"></ellipse>
        <ellipse fill="#007f72" transform="matrix(0.839, -0.545, 0.545, 0.839, 25.549, 8.266)" ry="3.492" rx="1.746" cy="3.492" cx="1.746" id="椭圆_146"></ellipse>
        <ellipse fill="#007f72" transform="matrix(0.839, -0.545, 0.545, 0.839, 22.186, 21.23)" ry="3.492" rx="1.746" cy="3.492" cx="1.746" id="椭圆_147"></ellipse>
      </g>
      <g transform="translate(16527.396 3309.152)" id="组_208">
        <path fill="#13ab9f" transform="translate(-16527.396 -3295.61)" d="M16590.543,3320.466s-21.506-41.364-49.223-17.373-6.615,47.981,0,51.7,31.844,15.718,31.844,15.718l22.342-4.136Z" id="路径_583"></path>
        <ellipse fill="#007f72" transform="matrix(0.839, -0.545, 0.545, 0.839, 8.812, 27.652)" ry="3.492" rx="1.746" cy="3.492" cx="1.746" id="椭圆_139"></ellipse>
        <ellipse fill="#007f72" transform="matrix(0.839, -0.545, 0.545, 0.839, 14.197, 12.228)" ry="3.492" rx="1.746" cy="3.492" cx="1.746" id="椭圆_140"></ellipse>
        <ellipse fill="#007f72" transform="matrix(0.839, -0.545, 0.545, 0.839, 24.97, 12.323)" ry="3.492" rx="1.746" cy="3.492" cx="1.746" id="椭圆_141"></ellipse>
        <ellipse fill="#007f72" transform="matrix(0.839, -0.545, 0.545, 0.839, 22.415, 27.652)" ry="3.492" rx="1.746" cy="3.492" cx="1.746" id="椭圆_142"></ellipse>
        <ellipse fill="#007f72" transform="matrix(0.839, -0.545, 0.545, 0.839, 12.181, 45.536)" ry="3.492" rx="1.746" cy="3.492" cx="1.746" id="椭圆_143"></ellipse>
        <ellipse fill="#007f72" transform="matrix(0.839, -0.545, 0.545, 0.839, 31.702, 45.536)" ry="3.492" rx="1.746" cy="3.492" cx="1.746" id="椭圆_144"></ellipse>
      </g>
      <g transform="translate(16576.184 3306.228)" id="组_207">
        <path fill="#05b7a6" transform="translate(-16546.494 -3294.466)" d="M16560.438,3370.228s-19.441-28.955-12.412-49.223,20.682-25.646,33.918-26.473,38.063,5.79,33.51,35.573-45.088,43.845-45.088,43.845Z" id="路径_582"></path>
        <ellipse fill="#007f72" transform="matrix(0.921, 0.391, -0.391, 0.921, 42.6, 43.988)" ry="3.492" rx="1.746" cy="3.492" cx="1.746" id="椭圆_134"></ellipse>
        <ellipse fill="#007f72" transform="matrix(0.921, 0.391, -0.391, 0.921, 36.657, 23.496)" ry="3.492" rx="1.746" cy="3.492" cx="1.746" id="椭圆_135"></ellipse>
        <ellipse fill="#007f72" transform="matrix(0.921, 0.391, -0.391, 0.921, 60.04, 19.599)" ry="3.492" rx="1.746" cy="3.492" cx="1.746" id="椭圆_136"></ellipse>
        <ellipse fill="#007f72" transform="matrix(0.921, 0.391, -0.391, 0.921, 26.018, 12.595)" ry="3.492" rx="1.746" cy="3.492" cx="1.746" id="椭圆_137"></ellipse>
        <ellipse fill="#007f72" transform="matrix(0.921, 0.391, -0.391, 0.921, 13.508, 34.225)" ry="3.492" rx="1.746" cy="3.492" cx="1.746" id="椭圆_138"></ellipse>
      </g>
      <path fill="#f38518" transform="translate(10.687 59.105)" d="M16534.27,3324.912l9.088,69.206h60.113l6.293-69.206Z" id="路径_581"></path>
      <rect fill="#fcbd7e" transform="translate(16537.693 3374.417)" height="20.372" width="91.676" id="矩形_136"></rect>
    </g>
    <g transform="translate(-752 -8)" id="组_200">
      <circle fill="#fff" transform="translate(819 203)" r="43" cy="43" cx="43" id="椭圆_133"></circle>
      <rect fill="#1290f1" transform="translate(860 222)" rx="2" height="27" width="4" id="矩形_134"></rect>
      <rect fill="#1290f1" transform="translate(897 245) rotate(90)" rx="2" height="37" width="4" id="矩形_135"></rect>
    </g>
    <g transform="translate(-12587 -4052.322)" id="组_206">
      <g transform="translate(13290.683 4535.488)" id="组_205">
        <g transform="translate(8.372 199.89)" id="组_203">
          <path fill="#f4c3b5" transform="translate(-13241.622 -4512.8)" d="M13283.084,4512.8s20.213,166.379,20.8,171.653,39.545-1.757,39.545-1.757l-5.566-168.432Z" id="路径_575"></path>
          <path fill="#d76202" transform="translate(-13260.167 -4439.952)" d="M13318.635,4604.166s14.193,6.985,26.361,5.183a90.481,90.481,0,0,0,22.309-6.534l3.828,60.388h-109.059s-3.152-5.858-1.352-10.815,6.76-10.365,16-13.745,22.758-5.633,28.617-10.59S13318.635,4604.166,13318.635,4604.166Z" id="路径_576"></path>
          <g clip-path="url(#clip-path-2)" transform="translate(0 162.863)" id="蒙版组_24">
            <path fill="#903700" transform="translate(-13260.313 -4578.834)" d="M13371.96,4632.446l-111.971,2.253,1.387,4.506h111.1" id="路径_577"></path>
            <path stroke-width="2" stroke="#ff9d42" fill="none" transform="translate(-13261.32 -4602.013)" d="M13331.7,4603.807s.879,27.552-13.506,35.178-45.412,10.053-47.666,10.227-11.785,0-11.785,0" id="路径_578"></path>
            <path stroke-width="2" stroke="#ff9d42" fill="none" transform="translate(-13229.843 -4597.276)" d="M13297.638,4611.022s17.459,7.2,41.568-1.362" id="路径_579"></path>
          </g>
        </g>
        <g transform="translate(119.575 189.227) rotate(-8)" id="组_204">
          <path fill="#f4c3b5" transform="translate(38.913 0)" d="M0,4.685S22.763,182.63,23.348,187.9s39.544-1.757,39.544-1.757L57.158,0Z" id="路径_575-2"></path>
          <path fill="#d76202" transform="translate(0 179.113)" d="M58.468,1.351S72.661,8.336,84.829,6.534A90.482,90.482,0,0,0,107.137,0l3.83,60.388H1.908S-1.246,54.529.556,49.572s6.76-10.365,16-13.745,22.758-5.633,28.618-10.59S58.468,1.351,58.468,1.351Z" id="路径_576-2"></path>
          <g clip-path="url(#clip-path-3)" transform="translate(0 179.113)" id="蒙版组_24-2">
            <path fill="#903700" transform="translate(-0.323 53.612)" d="M111.971,0,0,2.254,1.387,6.76h111.1" id="路径_577-2"></path>
            <path stroke-width="2" stroke="#ff9d42" fill="none" transform="translate(-2.575 1.793)" d="M72.957,0s.88,27.552-13.5,35.179S14.04,45.232,11.786,45.405,0,45.405,0,45.405" id="路径_578-2"></path>
            <path stroke-width="2" stroke="#ff9d42" fill="none" transform="translate(67.796 12.384)" d="M0,1.363S17.458,8.562,41.567,0" id="路径_579-2"></path>
          </g>
        </g>
        <path fill="#2a6fb4" transform="translate(-13255.541 -4402.321)" d="M13302.635,4409.987l-47.094,172.15s24.336,21.405,57.457,29.067,57.008,4.958,57.008,4.958l10.592-68.725,3.607,49.8s53.4-4.957,69.623-9.238,47.979-11.724,47.979-11.724l-54.529-173.952Z" id="路径_571"></path>
        <g clip-path="url(#clip-path-4)" id="蒙版组_23">
          <path fill="#a6cbe8" transform="translate(-13256.979 -4329.051)" d="M13260.1,4492.856a260.155,260.155,0,0,0,43.463,18.919c24.234,7.877,53.5,12.5,69.879,13.3,31.994,1.577,1.1,11.934,1.1,11.934s-50.922-4.958-75.258-15.1a336.371,336.371,0,0,1-45.518-23.658Z" id="路径_572"></path>
          <path fill="#a6cbe8" transform="translate(-13200.15 -4335.652)" d="M13325.891,4514.384s35.012-.172,59.1-8.319,45.068-12.132,57.373-19.586,4.334,10.92,4.334,10.92-39.52,14.906-59.105,19.239-63.611,6.586-63.611,6.586Z" id="路径_573"></path>
        </g>
      </g>
      <g transform="translate(13379.026 4237.774)" id="组_201">
        <path fill="#f4bfb1" transform="translate(-13292.298 -4202.334)" d="M13319.283,4283.3l.867,19.241,22.533-1.214v-19.76Z" id="路径_553"></path>
        <path fill="#f9c4bc" transform="translate(-13304.369 -4228.09)" d="M13313.17,4278.154s-4.348-5.845-7.988-.646,5.9,14.159,9.707,13.866c1.213,6.76,9.705,23.226,26.865,22.879s21.8-14.424,24.141-16.475c2.93,1.172,12.307-2.635,12.012-9.373s-7.617-6.738-7.617-6.738l3.516-14.06-13.182-17.869h-27.242l-18.164,4.1-4.684,9.959Z" id="路径_552"></path>
        <path fill="#702a11" transform="translate(-13303.046 -4237.773)" d="M13313.045,4287.191s-1.906-18.025,6.24-18.2,4.332,3.987,17.678,3.293,21.668-6.066,26-3.293,5.9,20.8,6.242,22.706,3.465-.866,5.023-3.12,4.855-17.852,2.775-29.292-15.6-22.013-35.705-21.494-32.242,10.055-33.973,18.721-1.906,21.667.346,25.479A13.284,13.284,0,0,0,13313.045,4287.191Z" id="路径_554"></path>
      </g>
      <g transform="translate(13212.118 4315.873)" id="组_202">
        <path fill="#fafdea" transform="translate(-13159.607 -4187.129)" d="M13277.385,4398.5s-.867,18.719,0,19.413,33.119,9.363,67.945,9.88,88.705-3.66,89.6-6.589.463-24.349.463-24.349h-86.977Z" id="路径_557"></path>
        <path fill="#f3c2b4" transform="translate(-13212.117 -4280.939)" d="M13281.594,4317.631s-.1-24.1-.512-29.126-6.77-11.487-12.516-3.488-5.023,20.614-5.023,20.923-14.562-16.205-20.41-22.358-14.461-.616-11.074,6.974,17.332,22.051,17.332,22.051-15.078-15.9-20.924-19.9-12.3,1.129-6.973,8.205,19.076,20,19.076,20-17.232-14.563-22.152-17.743-8.82,1.641-4.311,6.462,21.23,21.435,21.23,21.435-18.045-17.227-19.691-16.411-2.973,6.565-.514,11.283,26.053,29.127,26.053,29.127Z" id="路径_558"></path>
        <path fill="#f3c2b4" transform="translate(-13099.896 -4171.109)" d="M13363.008,4416.65s-8.666,4.4-10.4,13.732-2.521,15.331-1.055,19.064,5.744,6.05,9.232,3.076,4.891-11.34,4.891-11.34-2.8,11.079,0,15.466,10.391,5.515,12.545-.023,2.52-15.443,2.52-15.443.365,13.541,2.666,16.8,8.764,4.08,10.508-.666,1.758-17.6,1.758-17.6.1,13.982,2.4,17.6,10.535-.4,12.535-9.733-1.2-30.134-1.2-30.134Z" id="路径_559"></path>
        <path fill="#fafdea" transform="translate(-13133.303 -4275.238)" d="M13324.427,4287.983s15.072,4.678,26.686.691c5.2-1.906,16.473,5.548,16.473,5.548l-10.4,9.187-27.385,1.039s-20.975-5.892-20.281-10.226C13312.468,4289.2,13324.427,4287.983,13324.427,4287.983Z" id="路径_555"></path>
        <path fill="#f5711e" transform="translate(-13201.385 -4274.309)" d="M13381.576,4289.131c2.766,2.051,12.445,12.379,28.6,11.614s22.877-10.227,24.959-9.88,18.533,5.706,28.77,17.332,20.408,31.523,28.9,48.806,24.607,66.9,26.367,72.171-5.863,95.383-5.863,95.383-45.99,1.464-55.068-5.566c2.039-10.663,4.1-22.847,4.1-22.847s-38.664,10.25-70.889,5.858-59.172-3.516-73.523-16.4c-1.035-6.854,4.98-58,4.98-58s-41.936-14.213-64.4-38.965-33.129-39.223-33.129-40.365,37.127-24.846,47.025-41.982c1.99,1.591,44.105,33.763,44.105,33.763s16.424-24.26,30.727-34.431A120.016,120.016,0,0,1,13381.576,4289.131Z" id="路径_556"></path>
        <g clip-path="url(#clip-path-5)" transform="translate(23.998 14.822)" id="蒙版组_22">
          <path stroke-width="2" stroke="#673b1e" fill="none" transform="translate(-13161.324 -4287.425)" d="M13304.529,4291.24a56.09,56.09,0,0,0,35.881,18.894c23.227,2.6,51.652-13.174,51.652-13.174" id="路径_560"></path>
          <path stroke-width="2" stroke="#fab689" fill="none" transform="translate(-13179.66 -4278.165)" d="M13281.877,4302.683s7.615,33.1,21.969,36.029,50.674-23.435,54.484-23.141-13.768,29.878-17.576,40.717,6.154,19.626,21.092,6.151,33.395-40.424,58-44.524,30.76-6.152,23.438,0-21.383,25.19-23.437,26.949-3.809,11.424,11.426,9.959,34.857-1.758,34.857-1.758" id="路径_561"></path>
          <path stroke-width="2" stroke="#fab689" fill="none" transform="translate(-13176.262 -4228.56)" d="M13286.074,4434.686s.291-36.029,9.373-47.454,20.213-11.717,21.678-10.546-3.219,19.04,10.84,21.97,39.545-27.828,58.877-32.808,33.1-.292,21.09,17.283-32.807,36.321-31.637,55.948" id="路径_562"></path>
          <path stroke-width="2" stroke="#fab689" fill="none" transform="translate(-13212.692 -4248.432)" d="M13241.063,4349.688s28.709-9.959,44.232-10.252,23.727,3.808,14.646,17.575a213.617,213.617,0,0,1-18.162,23.728" id="路径_563"></path>
          <path stroke-width="2" stroke="#fab689" fill="none" transform="translate(-13101.223 -4218.421)" d="M13397.913,4376.5s-20.506,4.686-19.039,12.6,12.3,14.646,17.574,15.232" id="路径_564"></path>
          <path stroke-width="1" stroke="#707070" fill="none" transform="translate(-13184.664 -4207.021)" d="M13275.7,4390.59s63.885,25.777,145.9,8.2" id="路径_565"></path>
          <path stroke-width="2" stroke="#673b1e" fill="none" transform="translate(-13221.315 -4280.268)" d="M13276.373,4300.085s-28.617,45.515-45.967,52.951" id="路径_566"></path>
          <path stroke-width="2" stroke="#673b1e" fill="none" transform="translate(-13119.745 -4191.976)" d="M13355.909,4409.181s18.537,12.394,52.563,5.859" id="路径_567"></path>
          <path stroke-width="1" stroke="#707070" fill="none" transform="translate(-13120.428 -4240.557)" d="M13355.068,4349.152l16.449,50.022-13.293,47.77-3.156,1.127,12.168-47.77Z" id="路径_568"></path>
          <path stroke-width="1" stroke="#707070" fill="none" transform="translate(-13184.245 -4245.871)" d="M13291.4,4345.658c2.637-15.526-8.205,32.514-9.668,39.545s-7.322,55.069-4.979,58,11.719,6.445,11.719,6.445S13288.765,4361.184,13291.4,4345.658Z" id="路径_569"></path>
        </g>
      </g>
    </g>
  </g>
</svg>
